<svg xmlns="http://www.w3.org/2000/svg" width="40.484" height="18.706" viewBox="0 0 40.484 18.706">
  <path id="Logo_NIKE" d="M142.075,380.84a4.274,4.274,0,0,1-2.965-1.285,7.089,7.089,0,0,1-.616-.8,5.557,5.557,0,0,1-.668-1.557,11.382,11.382,0,0,1,.643-6.363A29.674,29.674,0,0,1,142.3,363.8c.29-.423,1.154-1.658,1.16-1.658s-.045.106-.1.235a17.654,17.654,0,0,0-1.189,3.557,8.149,8.149,0,0,0,.135,4.593,4.122,4.122,0,0,0,1.514,1.957c1.1.7,2.712.757,4.68.169.135-.041,6.85-2.352,14.92-5.135s14.675-5.06,14.676-5.058-18.751,10.406-28.485,15.8c-1.542.855-1.954,1.07-2.679,1.4A10.872,10.872,0,0,1,142.075,380.84Z" transform="translate(-137.61 -362.141)" fill="#27437f"/>
</svg>
