<svg xmlns="http://www.w3.org/2000/svg" width="18.804" height="17.983" viewBox="0 0 18.804 17.983">
  <path id="star_6_" data-name="star (6)" d="M10.31,1.611l2.121,4.3a1.012,1.012,0,0,0,.763.554l4.743.689A1.013,1.013,0,0,1,18.5,8.879l-3.432,3.345a1.013,1.013,0,0,0-.291.9l.81,4.723a1.013,1.013,0,0,1-1.469,1.068l-4.242-2.23a1.014,1.014,0,0,0-.943,0L4.69,18.911A1.013,1.013,0,0,1,3.22,17.843l.81-4.723a1.013,1.013,0,0,0-.291-.9L.307,8.879A1.012,1.012,0,0,1,.869,7.152l4.743-.689a1.012,1.012,0,0,0,.763-.554l2.121-4.3A1.012,1.012,0,0,1,10.31,1.611Z" transform="translate(-0.001 -1.047)" fill="#fedb41"/>
</svg>
